<mxfile host="app.diagrams.net" modified="2024-05-16T21:48:46.649Z" agent="Mozilla/5.0 (Macintosh; Intel Mac OS X 10_15_7) AppleWebKit/605.1.15 (KHTML, like Gecko) Version/16.6 Safari/605.1.15" etag="xbw8TnPSUoyio8oDMgy_" version="24.4.3" type="github">
  <diagram id="I4ahz-z1FdCuFzpf6qUr" name="Page-1">
    <mxGraphModel dx="1706" dy="1103" grid="1" gridSize="9" guides="1" tooltips="1" connect="1" arrows="1" fold="1" page="1" pageScale="1" pageWidth="850" pageHeight="1100" math="0" shadow="0">
      <root>
        <mxCell id="0" />
        <mxCell id="1" parent="0" />
        <mxCell id="r7bKNmbLutYQrQa0Vv5a-1" value="USER" style="shape=actor;whiteSpace=wrap;html=1;labelPosition=right;verticalLabelPosition=middle;align=left;verticalAlign=middle;" parent="1" vertex="1">
          <mxGeometry x="783" y="36" width="40" height="60" as="geometry" />
        </mxCell>
        <mxCell id="r7bKNmbLutYQrQa0Vv5a-17" value="" style="edgeStyle=orthogonalEdgeStyle;rounded=0;orthogonalLoop=1;jettySize=auto;html=1;" parent="1" source="r7bKNmbLutYQrQa0Vv5a-7" target="r7bKNmbLutYQrQa0Vv5a-10" edge="1">
          <mxGeometry relative="1" as="geometry" />
        </mxCell>
        <mxCell id="r7bKNmbLutYQrQa0Vv5a-7" value="Client browser" style="verticalLabelPosition=bottom;verticalAlign=top;html=1;shape=mxgraph.basic.acute_triangle;dx=0.5;" parent="1" vertex="1">
          <mxGeometry x="751" y="126" width="100" height="70" as="geometry" />
        </mxCell>
        <mxCell id="r7bKNmbLutYQrQa0Vv5a-9" value="" style="verticalLabelPosition=bottom;verticalAlign=top;html=1;shape=mxgraph.basic.rect;fillColor2=none;strokeWidth=2;size=20;indent=5;fillColor=none;" parent="1" vertex="1">
          <mxGeometry x="72" y="256.5" width="1494" height="711" as="geometry" />
        </mxCell>
        <mxCell id="r7bKNmbLutYQrQa0Vv5a-22" value="HTTP/websocket" style="edgeStyle=orthogonalEdgeStyle;rounded=0;orthogonalLoop=1;jettySize=auto;html=1;" parent="1" source="r7bKNmbLutYQrQa0Vv5a-10" target="r7bKNmbLutYQrQa0Vv5a-21" edge="1">
          <mxGeometry relative="1" as="geometry" />
        </mxCell>
        <mxCell id="r7bKNmbLutYQrQa0Vv5a-10" value="Webserver" style="verticalLabelPosition=bottom;verticalAlign=top;html=1;shape=mxgraph.basic.acute_triangle;dx=0.5;" parent="1" vertex="1">
          <mxGeometry x="751" y="288" width="100" height="70" as="geometry" />
        </mxCell>
        <mxCell id="r7bKNmbLutYQrQa0Vv5a-107" style="edgeStyle=orthogonalEdgeStyle;rounded=0;orthogonalLoop=1;jettySize=auto;html=1;entryX=0;entryY=0;entryDx=50;entryDy=0;entryPerimeter=0;fontSize=11;fontColor=#9c6d6d;" parent="1" source="r7bKNmbLutYQrQa0Vv5a-14" target="r7bKNmbLutYQrQa0Vv5a-10" edge="1">
          <mxGeometry relative="1" as="geometry">
            <Array as="points">
              <mxPoint x="959" y="225" />
              <mxPoint x="801" y="225" />
            </Array>
          </mxGeometry>
        </mxCell>
        <mxCell id="r7bKNmbLutYQrQa0Vv5a-14" value="Client mobile&lt;br&gt;" style="verticalLabelPosition=bottom;verticalAlign=top;html=1;shape=mxgraph.basic.acute_triangle;dx=0.5;" parent="1" vertex="1">
          <mxGeometry x="909" y="135" width="100" height="70" as="geometry" />
        </mxCell>
        <mxCell id="r7bKNmbLutYQrQa0Vv5a-106" value="" style="edgeStyle=orthogonalEdgeStyle;rounded=0;orthogonalLoop=1;jettySize=auto;html=1;fontSize=11;fontColor=#9c6d6d;" parent="1" source="r7bKNmbLutYQrQa0Vv5a-15" target="r7bKNmbLutYQrQa0Vv5a-10" edge="1">
          <mxGeometry relative="1" as="geometry">
            <Array as="points">
              <mxPoint x="644" y="225" />
              <mxPoint x="801" y="225" />
            </Array>
          </mxGeometry>
        </mxCell>
        <mxCell id="Fc79eV2DeLuxpPt_U4-c-6" value="&lt;span style=&quot;color: rgb(0, 0, 0);&quot;&gt;HTTP&lt;/span&gt;" style="edgeLabel;html=1;align=center;verticalAlign=middle;resizable=0;points=[];fontSize=11;fontColor=#9c6d6d;" parent="r7bKNmbLutYQrQa0Vv5a-106" vertex="1" connectable="0">
          <mxGeometry x="0.5925" y="-4" relative="1" as="geometry">
            <mxPoint as="offset" />
          </mxGeometry>
        </mxCell>
        <mxCell id="r7bKNmbLutYQrQa0Vv5a-15" value="Client app" style="verticalLabelPosition=bottom;verticalAlign=top;html=1;shape=mxgraph.basic.acute_triangle;dx=0.5;" parent="1" vertex="1">
          <mxGeometry x="594" y="135" width="100" height="70" as="geometry" />
        </mxCell>
        <mxCell id="r7bKNmbLutYQrQa0Vv5a-31" value="" style="edgeStyle=orthogonalEdgeStyle;rounded=0;orthogonalLoop=1;jettySize=auto;html=1;" parent="1" source="r7bKNmbLutYQrQa0Vv5a-21" target="r7bKNmbLutYQrQa0Vv5a-24" edge="1">
          <mxGeometry relative="1" as="geometry" />
        </mxCell>
        <mxCell id="Fc79eV2DeLuxpPt_U4-c-9" value="&lt;span style=&quot;color: rgb(0, 0, 0);&quot;&gt;HTTP&lt;/span&gt;" style="edgeLabel;html=1;align=center;verticalAlign=middle;resizable=0;points=[];fontSize=11;fontColor=#9c6d6d;" parent="r7bKNmbLutYQrQa0Vv5a-31" vertex="1" connectable="0">
          <mxGeometry x="0.6344" y="-1" relative="1" as="geometry">
            <mxPoint as="offset" />
          </mxGeometry>
        </mxCell>
        <mxCell id="r7bKNmbLutYQrQa0Vv5a-32" style="edgeStyle=orthogonalEdgeStyle;rounded=0;orthogonalLoop=1;jettySize=auto;html=1;" parent="1" source="r7bKNmbLutYQrQa0Vv5a-21" target="r7bKNmbLutYQrQa0Vv5a-23" edge="1">
          <mxGeometry relative="1" as="geometry" />
        </mxCell>
        <mxCell id="Fc79eV2DeLuxpPt_U4-c-8" value="&lt;span style=&quot;color: rgb(0, 0, 0);&quot;&gt;websocket&lt;/span&gt;" style="edgeLabel;html=1;align=center;verticalAlign=middle;resizable=0;points=[];fontSize=11;fontColor=#9c6d6d;" parent="r7bKNmbLutYQrQa0Vv5a-32" vertex="1" connectable="0">
          <mxGeometry x="0.1558" y="-1" relative="1" as="geometry">
            <mxPoint as="offset" />
          </mxGeometry>
        </mxCell>
        <mxCell id="Fc79eV2DeLuxpPt_U4-c-10" value="&lt;span style=&quot;color: rgb(0, 0, 0);&quot;&gt;HTTP&lt;/span&gt;" style="edgeLabel;html=1;align=center;verticalAlign=middle;resizable=0;points=[];fontSize=11;fontColor=#9c6d6d;" parent="r7bKNmbLutYQrQa0Vv5a-32" vertex="1" connectable="0">
          <mxGeometry x="-0.5115" relative="1" as="geometry">
            <mxPoint as="offset" />
          </mxGeometry>
        </mxCell>
        <mxCell id="r7bKNmbLutYQrQa0Vv5a-82" style="edgeStyle=orthogonalEdgeStyle;rounded=0;orthogonalLoop=1;jettySize=auto;html=1;fontSize=11;fontColor=#9c6d6d;" parent="1" source="r7bKNmbLutYQrQa0Vv5a-21" target="r7bKNmbLutYQrQa0Vv5a-79" edge="1">
          <mxGeometry relative="1" as="geometry" />
        </mxCell>
        <mxCell id="Fc79eV2DeLuxpPt_U4-c-11" value="&lt;span style=&quot;color: rgb(0, 0, 0);&quot;&gt;HTTP&lt;/span&gt;" style="edgeLabel;html=1;align=center;verticalAlign=middle;resizable=0;points=[];fontSize=11;fontColor=#9c6d6d;" parent="r7bKNmbLutYQrQa0Vv5a-82" vertex="1" connectable="0">
          <mxGeometry x="-0.5729" y="2" relative="1" as="geometry">
            <mxPoint as="offset" />
          </mxGeometry>
        </mxCell>
        <mxCell id="Fc79eV2DeLuxpPt_U4-c-13" value="&lt;span style=&quot;color: rgb(0, 0, 0);&quot;&gt;HTTP&lt;/span&gt;" style="edgeLabel;html=1;align=center;verticalAlign=middle;resizable=0;points=[];fontSize=11;fontColor=#9c6d6d;" parent="r7bKNmbLutYQrQa0Vv5a-82" vertex="1" connectable="0">
          <mxGeometry x="-0.0054" relative="1" as="geometry">
            <mxPoint as="offset" />
          </mxGeometry>
        </mxCell>
        <mxCell id="Fc79eV2DeLuxpPt_U4-c-14" value="&lt;span style=&quot;color: rgb(0, 0, 0);&quot;&gt;HTTP&lt;/span&gt;" style="edgeLabel;html=1;align=center;verticalAlign=middle;resizable=0;points=[];fontSize=11;fontColor=#9c6d6d;" parent="r7bKNmbLutYQrQa0Vv5a-82" vertex="1" connectable="0">
          <mxGeometry x="0.8188" relative="1" as="geometry">
            <mxPoint as="offset" />
          </mxGeometry>
        </mxCell>
        <mxCell id="r7bKNmbLutYQrQa0Vv5a-109" value="&#xa;&lt;span style=&quot;color: rgb(0, 0, 0); font-family: Helvetica; font-size: 11px; font-style: normal; font-variant-ligatures: normal; font-variant-caps: normal; font-weight: 400; letter-spacing: normal; orphans: 2; text-align: center; text-indent: 0px; text-transform: none; widows: 2; word-spacing: 0px; -webkit-text-stroke-width: 0px; background-color: rgb(255, 255, 255); text-decoration-thickness: initial; text-decoration-style: initial; text-decoration-color: initial; float: none; display: inline !important;&quot;&gt;HTTP&lt;/span&gt;&#xa;&#xa;" style="edgeStyle=orthogonalEdgeStyle;rounded=0;orthogonalLoop=1;jettySize=auto;html=1;entryX=0.5;entryY=0;entryDx=0;entryDy=0;fontSize=11;fontColor=#9c6d6d;" parent="1" source="r7bKNmbLutYQrQa0Vv5a-21" target="r7bKNmbLutYQrQa0Vv5a-72" edge="1">
          <mxGeometry relative="1" as="geometry">
            <Array as="points">
              <mxPoint x="797" y="491" />
              <mxPoint x="797" y="491" />
            </Array>
          </mxGeometry>
        </mxCell>
        <mxCell id="BxN9umX0_t_IdyEKbMLp-4" style="edgeStyle=orthogonalEdgeStyle;rounded=0;orthogonalLoop=1;jettySize=auto;html=1;" edge="1" parent="1" source="r7bKNmbLutYQrQa0Vv5a-21" target="r7bKNmbLutYQrQa0Vv5a-93">
          <mxGeometry relative="1" as="geometry" />
        </mxCell>
        <mxCell id="BxN9umX0_t_IdyEKbMLp-5" value="HTTP/Websocket" style="edgeLabel;html=1;align=center;verticalAlign=middle;resizable=0;points=[];" vertex="1" connectable="0" parent="BxN9umX0_t_IdyEKbMLp-4">
          <mxGeometry x="0.7614" y="1" relative="1" as="geometry">
            <mxPoint as="offset" />
          </mxGeometry>
        </mxCell>
        <mxCell id="r7bKNmbLutYQrQa0Vv5a-21" value="Ingress" style="html=1;dashed=0;whitespace=wrap;shape=mxgraph.dfd.start;strokeWidth=2;fillColor=none;" parent="1" vertex="1">
          <mxGeometry x="751" y="423" width="99.5" height="45" as="geometry" />
        </mxCell>
        <mxCell id="r7bKNmbLutYQrQa0Vv5a-45" style="edgeStyle=orthogonalEdgeStyle;rounded=0;orthogonalLoop=1;jettySize=auto;html=1;fontSize=11;fontColor=#9c6d6d;" parent="1" source="r7bKNmbLutYQrQa0Vv5a-23" target="r7bKNmbLutYQrQa0Vv5a-26" edge="1">
          <mxGeometry x="-0.0588" y="-9" relative="1" as="geometry">
            <Array as="points">
              <mxPoint x="216" y="567" />
              <mxPoint x="216" y="516" />
            </Array>
            <mxPoint as="offset" />
          </mxGeometry>
        </mxCell>
        <mxCell id="r7bKNmbLutYQrQa0Vv5a-67" value="pub/sub" style="edgeStyle=orthogonalEdgeStyle;rounded=0;orthogonalLoop=1;jettySize=auto;html=1;entryX=-0.002;entryY=0.337;entryDx=0;entryDy=0;entryPerimeter=0;fontSize=11;fontColor=#9c6d6d;" parent="1" source="r7bKNmbLutYQrQa0Vv5a-23" target="r7bKNmbLutYQrQa0Vv5a-27" edge="1">
          <mxGeometry x="-0.0005" y="-18" relative="1" as="geometry">
            <Array as="points">
              <mxPoint x="342" y="820" />
            </Array>
            <mxPoint as="offset" />
          </mxGeometry>
        </mxCell>
        <mxCell id="r7bKNmbLutYQrQa0Vv5a-23" value="Chat micro service" style="rounded=1;whiteSpace=wrap;html=1;absoluteArcSize=1;arcSize=14;strokeWidth=2;fillColor=none;" parent="1" vertex="1">
          <mxGeometry x="279" y="513" width="153" height="108" as="geometry" />
        </mxCell>
        <mxCell id="r7bKNmbLutYQrQa0Vv5a-61" style="edgeStyle=orthogonalEdgeStyle;rounded=0;orthogonalLoop=1;jettySize=auto;html=1;fontSize=11;fontColor=#9c6d6d;entryX=0.5;entryY=1;entryDx=0;entryDy=0;entryPerimeter=0;" parent="1" source="r7bKNmbLutYQrQa0Vv5a-24" target="r7bKNmbLutYQrQa0Vv5a-46" edge="1">
          <mxGeometry relative="1" as="geometry">
            <mxPoint x="493" y="549" as="targetPoint" />
          </mxGeometry>
        </mxCell>
        <mxCell id="r7bKNmbLutYQrQa0Vv5a-73" style="edgeStyle=orthogonalEdgeStyle;rounded=0;orthogonalLoop=1;jettySize=auto;html=1;fontSize=11;fontColor=#9c6d6d;" parent="1" source="r7bKNmbLutYQrQa0Vv5a-24" edge="1">
          <mxGeometry relative="1" as="geometry">
            <mxPoint x="572" y="774" as="targetPoint" />
            <Array as="points">
              <mxPoint x="572" y="684" />
              <mxPoint x="572" y="684" />
            </Array>
          </mxGeometry>
        </mxCell>
        <mxCell id="r7bKNmbLutYQrQa0Vv5a-24" value="Server micro service" style="rounded=1;whiteSpace=wrap;html=1;absoluteArcSize=1;arcSize=14;strokeWidth=2;fillColor=none;" parent="1" vertex="1">
          <mxGeometry x="513" y="513" width="153" height="108" as="geometry" />
        </mxCell>
        <mxCell id="r7bKNmbLutYQrQa0Vv5a-26" value="Write db" style="strokeWidth=2;html=1;shape=mxgraph.flowchart.database;whiteSpace=wrap;fillColor=#f8cecc;strokeColor=#b85450;" parent="1" vertex="1">
          <mxGeometry x="117" y="486" width="60" height="60" as="geometry" />
        </mxCell>
        <mxCell id="Fc79eV2DeLuxpPt_U4-c-2" style="edgeStyle=orthogonalEdgeStyle;rounded=0;orthogonalLoop=1;jettySize=auto;html=1;entryX=0;entryY=0.578;entryDx=0;entryDy=0;entryPerimeter=0;fontSize=11;fontColor=#9c6d6d;" parent="1" source="r7bKNmbLutYQrQa0Vv5a-38" target="r7bKNmbLutYQrQa0Vv5a-27" edge="1">
          <mxGeometry relative="1" as="geometry">
            <Array as="points">
              <mxPoint x="288" y="705" />
              <mxPoint x="288" y="852" />
            </Array>
          </mxGeometry>
        </mxCell>
        <mxCell id="Fc79eV2DeLuxpPt_U4-c-4" value="pub/sub" style="edgeLabel;html=1;align=center;verticalAlign=middle;resizable=0;points=[];fontSize=11;fontColor=#9c6d6d;" parent="Fc79eV2DeLuxpPt_U4-c-2" vertex="1" connectable="0">
          <mxGeometry x="0.4903" y="-4" relative="1" as="geometry">
            <mxPoint as="offset" />
          </mxGeometry>
        </mxCell>
        <mxCell id="r7bKNmbLutYQrQa0Vv5a-38" value="Elastic search or other" style="strokeWidth=2;html=1;shape=mxgraph.flowchart.database;whiteSpace=wrap;fillColor=#d5e8d4;labelPosition=center;verticalLabelPosition=bottom;align=left;verticalAlign=top;fontSize=11;labelBackgroundColor=default;strokeColor=#82b366;" parent="1" vertex="1">
          <mxGeometry x="108" y="664.5" width="78" height="81" as="geometry" />
        </mxCell>
        <mxCell id="r7bKNmbLutYQrQa0Vv5a-42" value="" style="group" parent="1" vertex="1" connectable="0">
          <mxGeometry x="432" y="774" width="846" height="135" as="geometry" />
        </mxCell>
        <mxCell id="r7bKNmbLutYQrQa0Vv5a-27" value="Message broker" style="verticalLabelPosition=bottom;verticalAlign=top;html=1;shape=mxgraph.basic.rect;fillColor2=none;strokeWidth=1;size=20;indent=5;fillColor=none;" parent="r7bKNmbLutYQrQa0Vv5a-42" vertex="1">
          <mxGeometry width="846" height="135" as="geometry" />
        </mxCell>
        <mxCell id="r7bKNmbLutYQrQa0Vv5a-28" value="Queue 1" style="rounded=1;whiteSpace=wrap;html=1;absoluteArcSize=1;arcSize=14;strokeWidth=2;fillColor=#fff2cc;strokeColor=#d6b656;" parent="r7bKNmbLutYQrQa0Vv5a-42" vertex="1">
          <mxGeometry x="44.526315789473685" y="18" width="756.9473684210526" height="27" as="geometry" />
        </mxCell>
        <mxCell id="r7bKNmbLutYQrQa0Vv5a-29" value="Queue 2" style="rounded=1;whiteSpace=wrap;html=1;absoluteArcSize=1;arcSize=14;strokeWidth=2;fillColor=#e1d5e7;strokeColor=#9673a6;" parent="r7bKNmbLutYQrQa0Vv5a-42" vertex="1">
          <mxGeometry x="44.526315789473685" y="54" width="756.9473684210526" height="27" as="geometry" />
        </mxCell>
        <mxCell id="r7bKNmbLutYQrQa0Vv5a-30" value="Queue 3" style="rounded=1;whiteSpace=wrap;html=1;absoluteArcSize=1;arcSize=14;strokeWidth=2;fillColor=#ffe6cc;strokeColor=#d79b00;" parent="r7bKNmbLutYQrQa0Vv5a-42" vertex="1">
          <mxGeometry x="44.526315789473685" y="90" width="756.9473684210526" height="27" as="geometry" />
        </mxCell>
        <mxCell id="r7bKNmbLutYQrQa0Vv5a-46" value="Write db" style="strokeWidth=2;html=1;shape=mxgraph.flowchart.database;whiteSpace=wrap;fillColor=#f8cecc;strokeColor=#b85450;" parent="1" vertex="1">
          <mxGeometry x="444.5" y="477" width="60" height="60" as="geometry" />
        </mxCell>
        <mxCell id="r7bKNmbLutYQrQa0Vv5a-63" value="pub/sub" style="edgeStyle=orthogonalEdgeStyle;rounded=0;orthogonalLoop=1;jettySize=auto;html=1;entryX=0.454;entryY=0.994;entryDx=0;entryDy=0;entryPerimeter=0;fontSize=11;fontColor=#9c6d6d;" parent="1" source="r7bKNmbLutYQrQa0Vv5a-27" target="r7bKNmbLutYQrQa0Vv5a-24" edge="1">
          <mxGeometry relative="1" as="geometry">
            <Array as="points">
              <mxPoint x="565" y="729" />
              <mxPoint x="565" y="729" />
            </Array>
          </mxGeometry>
        </mxCell>
        <mxCell id="r7bKNmbLutYQrQa0Vv5a-66" style="edgeStyle=orthogonalEdgeStyle;rounded=0;orthogonalLoop=1;jettySize=auto;html=1;entryX=0.203;entryY=1.009;entryDx=0;entryDy=0;entryPerimeter=0;fontSize=11;fontColor=#9c6d6d;exitX=0.001;exitY=0.151;exitDx=0;exitDy=0;exitPerimeter=0;" parent="1" source="r7bKNmbLutYQrQa0Vv5a-27" target="r7bKNmbLutYQrQa0Vv5a-23" edge="1">
          <mxGeometry relative="1" as="geometry">
            <mxPoint x="423" y="855" as="sourcePoint" />
          </mxGeometry>
        </mxCell>
        <mxCell id="r7bKNmbLutYQrQa0Vv5a-76" value="pub/sub" style="edgeStyle=orthogonalEdgeStyle;rounded=0;orthogonalLoop=1;jettySize=auto;html=1;entryX=0.436;entryY=0.02;entryDx=0;entryDy=0;entryPerimeter=0;fontSize=11;fontColor=#9c6d6d;" parent="1" source="r7bKNmbLutYQrQa0Vv5a-72" target="r7bKNmbLutYQrQa0Vv5a-27" edge="1">
          <mxGeometry relative="1" as="geometry" />
        </mxCell>
        <mxCell id="gk63O6OOP2rGa1J9IB_V-16" style="edgeStyle=orthogonalEdgeStyle;rounded=0;orthogonalLoop=1;jettySize=auto;html=1;" parent="1" source="r7bKNmbLutYQrQa0Vv5a-72" target="gk63O6OOP2rGa1J9IB_V-15" edge="1">
          <mxGeometry relative="1" as="geometry">
            <Array as="points">
              <mxPoint x="867" y="630" />
              <mxPoint x="867" y="630" />
            </Array>
          </mxGeometry>
        </mxCell>
        <mxCell id="r7bKNmbLutYQrQa0Vv5a-72" value="Auth/user micro service" style="rounded=1;whiteSpace=wrap;html=1;absoluteArcSize=1;arcSize=14;strokeWidth=2;fillColor=none;" parent="1" vertex="1">
          <mxGeometry x="720" y="513" width="153" height="108" as="geometry" />
        </mxCell>
        <mxCell id="r7bKNmbLutYQrQa0Vv5a-78" style="edgeStyle=orthogonalEdgeStyle;rounded=0;orthogonalLoop=1;jettySize=auto;html=1;entryX=0.412;entryY=1;entryDx=0;entryDy=0;entryPerimeter=0;fontSize=11;fontColor=#9c6d6d;exitX=0.626;exitY=0.003;exitDx=0;exitDy=0;exitPerimeter=0;" parent="1" source="r7bKNmbLutYQrQa0Vv5a-27" target="r7bKNmbLutYQrQa0Vv5a-72" edge="1">
          <mxGeometry relative="1" as="geometry">
            <mxPoint x="783" y="756" as="sourcePoint" />
            <Array as="points">
              <mxPoint x="783" y="774" />
            </Array>
          </mxGeometry>
        </mxCell>
        <mxCell id="r7bKNmbLutYQrQa0Vv5a-87" style="edgeStyle=orthogonalEdgeStyle;rounded=0;orthogonalLoop=1;jettySize=auto;html=1;fontSize=11;fontColor=#9c6d6d;" parent="1" edge="1">
          <mxGeometry relative="1" as="geometry">
            <mxPoint x="1107" y="774" as="targetPoint" />
            <mxPoint x="1098" y="621" as="sourcePoint" />
            <Array as="points">
              <mxPoint x="1098" y="774" />
            </Array>
          </mxGeometry>
        </mxCell>
        <mxCell id="r7bKNmbLutYQrQa0Vv5a-79" value="Relation micro service" style="rounded=1;whiteSpace=wrap;html=1;absoluteArcSize=1;arcSize=14;strokeWidth=2;fillColor=none;" parent="1" vertex="1">
          <mxGeometry x="981" y="504" width="153" height="108" as="geometry" />
        </mxCell>
        <mxCell id="r7bKNmbLutYQrQa0Vv5a-88" value="pub/sub" style="edgeStyle=orthogonalEdgeStyle;rounded=0;orthogonalLoop=1;jettySize=auto;html=1;entryX=0.355;entryY=1.026;entryDx=0;entryDy=0;entryPerimeter=0;fontSize=11;fontColor=#9c6d6d;exitX=0.93;exitY=-0.006;exitDx=0;exitDy=0;exitPerimeter=0;" parent="1" source="r7bKNmbLutYQrQa0Vv5a-27" target="r7bKNmbLutYQrQa0Vv5a-79" edge="1">
          <mxGeometry relative="1" as="geometry">
            <Array as="points">
              <mxPoint x="1089" y="773" />
              <mxPoint x="1089" y="615" />
            </Array>
          </mxGeometry>
        </mxCell>
        <mxCell id="r7bKNmbLutYQrQa0Vv5a-102" style="edgeStyle=orthogonalEdgeStyle;rounded=0;orthogonalLoop=1;jettySize=auto;html=1;fontSize=11;fontColor=#9c6d6d;exitX=0.136;exitY=0.998;exitDx=0;exitDy=0;exitPerimeter=0;" parent="1" source="r7bKNmbLutYQrQa0Vv5a-93" edge="1">
          <mxGeometry relative="1" as="geometry">
            <mxPoint x="1278" y="810" as="targetPoint" />
            <Array as="points">
              <mxPoint x="1296" y="675" />
              <mxPoint x="1296" y="810" />
            </Array>
          </mxGeometry>
        </mxCell>
        <mxCell id="r7bKNmbLutYQrQa0Vv5a-93" value="Notification micro service" style="rounded=1;whiteSpace=wrap;html=1;absoluteArcSize=1;arcSize=14;strokeWidth=2;fillColor=none;" parent="1" vertex="1">
          <mxGeometry x="1198" y="567" width="153" height="108" as="geometry" />
        </mxCell>
        <mxCell id="r7bKNmbLutYQrQa0Vv5a-100" style="edgeStyle=orthogonalEdgeStyle;rounded=0;orthogonalLoop=1;jettySize=auto;html=1;entryX=0.25;entryY=1;entryDx=0;entryDy=0;fontSize=11;fontColor=#9c6d6d;" parent="1" source="r7bKNmbLutYQrQa0Vv5a-27" target="r7bKNmbLutYQrQa0Vv5a-93" edge="1">
          <mxGeometry relative="1" as="geometry">
            <Array as="points">
              <mxPoint x="1323" y="828" />
              <mxPoint x="1323" y="675" />
            </Array>
          </mxGeometry>
        </mxCell>
        <mxCell id="Fc79eV2DeLuxpPt_U4-c-3" style="edgeStyle=orthogonalEdgeStyle;rounded=0;orthogonalLoop=1;jettySize=auto;html=1;entryX=1;entryY=0.85;entryDx=0;entryDy=0;entryPerimeter=0;fontSize=11;fontColor=#9c6d6d;" parent="1" source="r7bKNmbLutYQrQa0Vv5a-27" target="r7bKNmbLutYQrQa0Vv5a-38" edge="1">
          <mxGeometry x="-0.0093" y="18" relative="1" as="geometry">
            <Array as="points">
              <mxPoint x="261" y="873" />
              <mxPoint x="261" y="733" />
            </Array>
            <mxPoint as="offset" />
          </mxGeometry>
        </mxCell>
        <mxCell id="gk63O6OOP2rGa1J9IB_V-1" style="edgeStyle=orthogonalEdgeStyle;rounded=0;orthogonalLoop=1;jettySize=auto;html=1;fontSize=11;fontColor=#9c6d6d;" parent="1" target="gk63O6OOP2rGa1J9IB_V-2" edge="1">
          <mxGeometry relative="1" as="geometry">
            <mxPoint x="720.5" y="594" as="sourcePoint" />
            <Array as="points">
              <mxPoint x="702" y="595" />
            </Array>
          </mxGeometry>
        </mxCell>
        <mxCell id="gk63O6OOP2rGa1J9IB_V-2" value="Write db" style="strokeWidth=2;html=1;shape=mxgraph.flowchart.database;whiteSpace=wrap;fillColor=#f8cecc;strokeColor=#b85450;" parent="1" vertex="1">
          <mxGeometry x="675" y="664.5" width="60" height="60" as="geometry" />
        </mxCell>
        <mxCell id="gk63O6OOP2rGa1J9IB_V-4" style="edgeStyle=orthogonalEdgeStyle;rounded=0;orthogonalLoop=1;jettySize=auto;html=1;entryX=0;entryY=0.75;entryDx=0;entryDy=0;" parent="1" source="gk63O6OOP2rGa1J9IB_V-3" target="r7bKNmbLutYQrQa0Vv5a-23" edge="1">
          <mxGeometry relative="1" as="geometry">
            <Array as="points">
              <mxPoint x="228" y="612" />
              <mxPoint x="228" y="594" />
            </Array>
          </mxGeometry>
        </mxCell>
        <mxCell id="gk63O6OOP2rGa1J9IB_V-3" value="Read" style="strokeWidth=2;html=1;shape=mxgraph.flowchart.database;whiteSpace=wrap;fillColor=#6d8764;strokeColor=#3A5431;fontColor=#ffffff;" parent="1" vertex="1">
          <mxGeometry x="117" y="567" width="60" height="60" as="geometry" />
        </mxCell>
        <mxCell id="gk63O6OOP2rGa1J9IB_V-5" style="edgeStyle=orthogonalEdgeStyle;rounded=0;orthogonalLoop=1;jettySize=auto;html=1;entryX=1;entryY=0.5;entryDx=0;entryDy=0;entryPerimeter=0;" parent="1" source="r7bKNmbLutYQrQa0Vv5a-23" target="gk63O6OOP2rGa1J9IB_V-3" edge="1">
          <mxGeometry relative="1" as="geometry">
            <Array as="points">
              <mxPoint x="216" y="576" />
              <mxPoint x="216" y="597" />
            </Array>
          </mxGeometry>
        </mxCell>
        <mxCell id="gk63O6OOP2rGa1J9IB_V-6" style="edgeStyle=orthogonalEdgeStyle;rounded=0;orthogonalLoop=1;jettySize=auto;html=1;entryX=0.25;entryY=1;entryDx=0;entryDy=0;" parent="1" source="gk63O6OOP2rGa1J9IB_V-7" target="r7bKNmbLutYQrQa0Vv5a-24" edge="1">
          <mxGeometry relative="1" as="geometry">
            <mxPoint x="549" y="675" as="targetPoint" />
            <Array as="points">
              <mxPoint x="498" y="693" />
              <mxPoint x="498" y="675" />
              <mxPoint x="551" y="675" />
            </Array>
          </mxGeometry>
        </mxCell>
        <mxCell id="gk63O6OOP2rGa1J9IB_V-7" value="Read" style="strokeWidth=2;html=1;shape=mxgraph.flowchart.database;whiteSpace=wrap;fillColor=#6d8764;strokeColor=#3A5431;fontColor=#ffffff;" parent="1" vertex="1">
          <mxGeometry x="387" y="648" width="60" height="60" as="geometry" />
        </mxCell>
        <mxCell id="gk63O6OOP2rGa1J9IB_V-8" style="edgeStyle=orthogonalEdgeStyle;rounded=0;orthogonalLoop=1;jettySize=auto;html=1;entryX=1;entryY=0.5;entryDx=0;entryDy=0;entryPerimeter=0;exitX=0.151;exitY=1.03;exitDx=0;exitDy=0;exitPerimeter=0;" parent="1" source="r7bKNmbLutYQrQa0Vv5a-24" target="gk63O6OOP2rGa1J9IB_V-7" edge="1">
          <mxGeometry relative="1" as="geometry">
            <mxPoint x="549" y="657" as="sourcePoint" />
            <Array as="points">
              <mxPoint x="536" y="657" />
              <mxPoint x="486" y="657" />
              <mxPoint x="486" y="678" />
            </Array>
          </mxGeometry>
        </mxCell>
        <mxCell id="gk63O6OOP2rGa1J9IB_V-15" value="Read" style="strokeWidth=2;html=1;shape=mxgraph.flowchart.database;whiteSpace=wrap;fillColor=#6d8764;strokeColor=#3A5431;fontColor=#ffffff;" parent="1" vertex="1">
          <mxGeometry x="837" y="664.5" width="60" height="60" as="geometry" />
        </mxCell>
        <mxCell id="gk63O6OOP2rGa1J9IB_V-17" style="edgeStyle=orthogonalEdgeStyle;rounded=0;orthogonalLoop=1;jettySize=auto;html=1;entryX=0.836;entryY=0.997;entryDx=0;entryDy=0;entryPerimeter=0;" parent="1" source="gk63O6OOP2rGa1J9IB_V-15" target="r7bKNmbLutYQrQa0Vv5a-72" edge="1">
          <mxGeometry relative="1" as="geometry" />
        </mxCell>
        <mxCell id="gk63O6OOP2rGa1J9IB_V-19" style="edgeStyle=orthogonalEdgeStyle;rounded=0;orthogonalLoop=1;jettySize=auto;html=1;entryX=0;entryY=0.5;entryDx=0;entryDy=0;" parent="1" source="gk63O6OOP2rGa1J9IB_V-18" target="r7bKNmbLutYQrQa0Vv5a-79" edge="1">
          <mxGeometry relative="1" as="geometry" />
        </mxCell>
        <mxCell id="gk63O6OOP2rGa1J9IB_V-18" value="Read/write DB neo4j" style="strokeWidth=2;html=1;shape=mxgraph.flowchart.database;whiteSpace=wrap;fillColor=#6d8764;strokeColor=#3A5431;fontColor=#ffffff;" parent="1" vertex="1">
          <mxGeometry x="929" y="657" width="60" height="60" as="geometry" />
        </mxCell>
        <mxCell id="gk63O6OOP2rGa1J9IB_V-21" style="edgeStyle=orthogonalEdgeStyle;rounded=0;orthogonalLoop=1;jettySize=auto;html=1;entryX=1;entryY=0.5;entryDx=0;entryDy=0;entryPerimeter=0;" parent="1" source="r7bKNmbLutYQrQa0Vv5a-79" target="gk63O6OOP2rGa1J9IB_V-18" edge="1">
          <mxGeometry relative="1" as="geometry">
            <Array as="points">
              <mxPoint x="1008" y="687" />
            </Array>
          </mxGeometry>
        </mxCell>
        <mxCell id="gk63O6OOP2rGa1J9IB_V-27" value="pub" style="edgeStyle=orthogonalEdgeStyle;rounded=0;orthogonalLoop=1;jettySize=auto;html=1;entryX=1;entryY=0.25;entryDx=0;entryDy=0;exitX=0.5;exitY=0;exitDx=0;exitDy=0;exitPerimeter=0;" parent="1" source="gk63O6OOP2rGa1J9IB_V-25" target="r7bKNmbLutYQrQa0Vv5a-93" edge="1">
          <mxGeometry relative="1" as="geometry">
            <Array as="points">
              <mxPoint x="1461" y="702" />
              <mxPoint x="1467" y="702" />
              <mxPoint x="1467" y="603" />
              <mxPoint x="1351" y="603" />
            </Array>
          </mxGeometry>
        </mxCell>
        <mxCell id="gk63O6OOP2rGa1J9IB_V-25" value="Redis pub/sub" style="strokeWidth=2;html=1;shape=mxgraph.flowchart.database;whiteSpace=wrap;fillColor=#6d8764;strokeColor=#3A5431;fontColor=#ffffff;" parent="1" vertex="1">
          <mxGeometry x="1431" y="708" width="60" height="60" as="geometry" />
        </mxCell>
        <mxCell id="gk63O6OOP2rGa1J9IB_V-29" value="sub" style="edgeStyle=orthogonalEdgeStyle;rounded=0;orthogonalLoop=1;jettySize=auto;html=1;entryX=0.5;entryY=0;entryDx=0;entryDy=0;entryPerimeter=0;" parent="1" source="r7bKNmbLutYQrQa0Vv5a-93" target="gk63O6OOP2rGa1J9IB_V-25" edge="1">
          <mxGeometry relative="1" as="geometry">
            <Array as="points">
              <mxPoint x="1467" y="621" />
              <mxPoint x="1467" y="702" />
            </Array>
          </mxGeometry>
        </mxCell>
        <mxCell id="BxN9umX0_t_IdyEKbMLp-3" value="sub&lt;div&gt;&lt;br&gt;&lt;/div&gt;" style="edgeStyle=orthogonalEdgeStyle;rounded=0;orthogonalLoop=1;jettySize=auto;html=1;entryX=0;entryY=0;entryDx=0;entryDy=0;" edge="1" parent="1" source="BxN9umX0_t_IdyEKbMLp-1" target="r7bKNmbLutYQrQa0Vv5a-23">
          <mxGeometry relative="1" as="geometry" />
        </mxCell>
        <mxCell id="BxN9umX0_t_IdyEKbMLp-1" value="Redis pub/sub" style="strokeWidth=2;html=1;shape=mxgraph.flowchart.database;whiteSpace=wrap;fillColor=#6d8764;strokeColor=#3A5431;fontColor=#ffffff;" vertex="1" parent="1">
          <mxGeometry x="219" y="358" width="60" height="60" as="geometry" />
        </mxCell>
        <mxCell id="BxN9umX0_t_IdyEKbMLp-2" value="pub" style="edgeStyle=orthogonalEdgeStyle;rounded=0;orthogonalLoop=1;jettySize=auto;html=1;exitX=0.25;exitY=0;exitDx=0;exitDy=0;entryX=0.5;entryY=1;entryDx=0;entryDy=0;entryPerimeter=0;" edge="1" parent="1" source="r7bKNmbLutYQrQa0Vv5a-23" target="BxN9umX0_t_IdyEKbMLp-1">
          <mxGeometry relative="1" as="geometry">
            <mxPoint x="261" y="441" as="targetPoint" />
          </mxGeometry>
        </mxCell>
      </root>
    </mxGraphModel>
  </diagram>
</mxfile>
